<svg width="206" height="34" viewBox="0 0 206 34" fill="none" xmlns="http://www.w3.org/2000/svg">
<path d="M0.944 26H8.756V24.092H6.128V3.068H8.756V1.16H0.944V3.068H3.572V24.092H0.944V26ZM23.9576 7.532C20.0336 7.532 17.9096 9.872 17.0456 12.428H16.9376C17.0096 11.96 17.0456 11.132 17.0456 10.376V8.756C17.0456 8.216 16.7216 7.892 16.1456 7.892H12.0416V9.728H14.7416V24.164H12.0416V26H19.9976V24.164H17.2616V17.9C17.2616 13.148 19.6376 9.728 23.1656 9.728C26.3336 9.728 28.0256 12.068 28.0256 15.524V26H33.2096V24.164H30.5096V15.164C30.5096 10.52 28.0256 7.532 23.9576 7.532ZM38.8045 5.372C39.9205 5.372 40.8205 4.436 40.8205 3.284C40.8205 2.168 39.9205 1.232 38.8045 1.232C37.6165 1.232 36.6805 2.168 36.6805 3.284C36.6805 4.436 37.6165 5.372 38.8045 5.372ZM32.3245 32.3C33.0445 32.732 34.0165 33.092 35.2405 33.092C38.3365 33.092 40.1365 31.184 40.1365 27.764V8.756C40.1365 8.216 39.8125 7.892 39.2725 7.892H34.9885V9.692H37.6525V28.052C37.6525 29.996 36.7165 31.04 35.2405 31.04C34.3405 31.04 33.5125 30.824 32.7925 30.392L32.3245 32.3ZM53.2354 7.532C48.2314 7.532 44.8834 11.564 44.8834 16.928C44.8834 22.4 48.4114 26.36 53.7754 26.36C57.0514 26.36 59.9674 24.848 60.9754 22.4L58.9594 21.536C58.0954 23.084 56.0794 24.272 53.7754 24.272C49.9234 24.272 47.5834 21.356 47.4034 17.432H60.9754C61.1194 11.348 58.7434 7.532 53.2354 7.532ZM47.5114 15.488C47.9794 11.96 50.2114 9.548 53.3074 9.548C57.0874 9.548 58.4554 12.716 58.5634 15.488H47.5114ZM64.36 16.928C64.36 22.58 67.744 26.36 73.252 26.36C76.816 26.36 79.516 24.812 80.56 22.436L78.544 21.536C77.644 23.12 75.628 24.272 73.252 24.272C69.184 24.272 66.916 21.248 66.916 16.928C66.916 12.716 69.112 9.62 73.18 9.62C75.268 9.62 76.924 10.34 77.68 11.276V13.58H79.984V10.088C78.4 8.324 76.096 7.532 73.216 7.532C67.6 7.532 64.36 11.672 64.36 16.928ZM86.3256 3.14L85.4976 7.892H82.7616V9.692H85.5696V20.312C85.5696 24.488 87.5136 26.216 90.5016 26.216C91.8336 26.216 92.9496 25.964 93.7056 25.604L93.2736 23.66C92.5536 23.984 91.8696 24.128 90.7896 24.128C89.1696 24.128 88.0536 23.012 88.0536 20.528L88.0896 9.692H93.7776V7.892H88.0896V3.14H86.3256ZM104.247 7.532C99.2431 7.532 95.8951 11.564 95.8951 16.928C95.8951 22.4 99.4231 26.36 104.787 26.36C108.063 26.36 110.979 24.848 111.987 22.4L109.971 21.536C109.107 23.084 107.091 24.272 104.787 24.272C100.935 24.272 98.5951 21.356 98.4151 17.432H111.987C112.131 11.348 109.755 7.532 104.247 7.532ZM98.5231 15.488C98.9911 11.96 101.223 9.548 104.319 9.548C108.099 9.548 109.467 12.716 109.575 15.488H98.5231ZM134.452 23.804C134.056 24.02 133.696 24.128 133.264 24.128C132.508 24.128 131.86 23.48 131.86 22.436V0.907999C131.86 0.368 131.536 0.00799775 130.96 0.00799775H126.676V1.808H129.376V9.548C128.116 8.288 126.1 7.532 124.156 7.532C118.864 7.532 115.408 11.492 115.408 17C115.408 22.472 118.396 26.396 123.076 26.396C126.316 26.396 128.764 24.524 129.736 22.148H129.808C129.736 22.76 129.736 23.084 129.736 23.3C129.736 24.74 130.6 26.18 132.724 26.18C133.48 26.18 134.272 25.964 134.812 25.676L134.452 23.804ZM129.376 17.108C129.376 20.96 127.216 24.308 123.652 24.308C120.088 24.308 117.964 21.14 117.964 17C117.964 12.68 120.376 9.62 124.372 9.62C126.244 9.62 128.188 10.232 129.376 11.636V17.108ZM137.704 7.532C137.704 17.432 152.14 13.292 152.14 19.556C152.14 22.148 149.62 23.192 146.56 23.192C144.004 23.192 141.88 22.472 140.656 21.068V17.972H137.596V22.76C139.36 24.992 142.168 26.36 146.56 26.36C151.816 26.36 155.848 24.02 155.848 19.556C155.848 9.836 141.448 14.336 141.448 7.496C141.448 5.3 143.716 3.932 146.488 3.932C148.864 3.932 150.808 4.832 151.744 5.732V9.44H154.804V4.076C152.86 2.204 150.34 0.799998 146.416 0.799998C141.268 0.799998 137.704 3.752 137.704 7.532ZM174.127 1.16V3.86H176.683L170.095 23.048L163.615 3.86H166.027V1.16H157.063V3.86H159.583L167.575 26H172.435L180.427 3.86H182.911V1.16H174.127ZM196.813 13.868V16.748H201.817V21.392C200.449 22.328 198.145 23.084 195.553 23.084C191.017 23.084 187.993 19.304 187.993 13.58C187.993 7.856 191.017 4.076 195.553 4.076C198.505 4.076 200.845 5.156 201.925 6.236V9.692H204.985V4.328C202.969 2.348 200.053 0.799998 195.553 0.799998C188.605 0.799998 183.961 5.912 183.961 13.58C183.961 21.248 188.605 26.36 195.553 26.36C199.657 26.36 203.041 25.172 205.237 23.264V13.868H196.813Z" fill="black"/>
</svg>
